#!OML:ASF F:\VICON\USERDATA\INSTALL\rory3\rory3.ASF
:FULLY-SPECIFIED
:DEGREES
185
root 0.896993 16.8069 -17.1425 3.35818 1.75921 -0.534071
lowerback 14.1236 -0.261419 -2.22645
upperback 0.946663 -0.525744 2.36788
thorax -6.88373 -0.150515 3.88633
lowerneck -21.6291 -4.93643 -9.68226
upperneck 13.3526 -5.28218 8.05361
head 8.14976 -2.20181 3.58388
rclavicle 3.47873e-015 -8.74653e-015
rhumerus -28.7917 -6.4266 -75.7404
rradius 35.3852
rwrist 8.12988
rhand -15.9619 14.7008
rfingers 7.12502
rthumb 10.2369 -15.0301
lclavicle 3.47873e-015 -8.74653e-015
lhumerus -21.7955 1.9677 76.8892
lradius 36.0341
lwrist -2.66732
lhand -16.9994 16.6217
lfingers 7.12502
lthumb 9.23593 46.3994
rfemur -22.3124 -3.63239 22.3492
rtibia 47.3598
rfoot -21.7184 -7.69466
rtoes -3.69913
lfemur -22.8655 3.51583 -18.9852
ltibia 46.2848
lfoot -23.2148 -0.195702
ltoes -4.41805
186
root 0.903412 16.6829 -17.1805 3.0481 1.84567 -0.727921
lowerback 14.4726 -0.3192 -1.70865
upperback 1.35948 -0.532602 2.27308
thorax -6.64133 -0.180127 3.49061
lowerneck -22.0043 -4.92745 -9.55709
upperneck 12.7216 -5.21939 7.96003
head 7.98766 -2.16598 3.53215
rclavicle -2.38542e-015 -3.97569e-016
rhumerus -27.9508 -8.78354 -75.6931
rradius 34.4873
rwrist 8.89272
rhand -15.8754 15.6904
rfingers 7.12502
rthumb 10.3203 -14.0364
lclavicle -2.38542e-015 -3.97569e-016
lhumerus -21.7955 1.9677 76.8892
lradius 36.0341
lwrist -2.66732
lhand -16.9994 16.6217
lfingers 7.12502
lthumb 9.23593 46.3994
rfemur -23.1356 -3.70834 22.6748
rtibia 49.5932
rfoot -23.1107 -8.66715
rtoes -3.63134
lfemur -23.8115 3.44352 -18.8823
ltibia 48.6047
lfoot -24.489 0.543257
ltoes -4.9093
187
root 0.914987 16.5866 -17.2159 2.79647 2.06167 -0.813669
lowerback 14.5892 -0.449933 -1.27582
upperback 1.7482 -0.644472 2.21318
thorax -6.28851 -0.256632 3.19755
lowerneck -21.8073 -4.89123 -9.49226
upperneck 11.6398 -5.12595 7.82389
head 7.57924 -2.13501 3.48174
rclavicle -3.57812e-015 -1.27222e-014
rhumerus -27.2912 -10.9484 -75.6182
rradius 33.6605
rwrist 9.68555
rhand -15.6687 16.3383
rfingers 7.12502
rthumb 10.5198 -13.3784
lclavicle -3.57812e-015 -1.27222e-014
lhumerus -21.7955 1.9677 76.8892
lradius 36.0341
lwrist -2.66732
lhand -16.9994 16.6217
lfingers 7.12502
lthumb 9.23593 46.3994
rfemur -23.8775 -3.71661 22.7498
rtibia 51.5788
rfoot -24.0982 -8.97435
rtoes -2.73564
lfemur -24.829 3.0889 -18.7951
ltibia 50.8811
lfoot -25.4148 0.309166
ltoes -3.95449
188
root 0.924535 16.4784 -17.2575 2.59056 2.23218 -0.980659
lowerback 14.8863 -0.53219 -0.906989
upperback 1.95452 -0.692462 2.26432
thorax -6.23353 -0.290891 3.05434
lowerneck -21.8148 -4.83642 -9.38922
upperneck 11.0009 -4.9906 7.48741
head 7.34296 -2.09679 3.36574
rclavicle 1.46107e-014 -1.35174e-014
rhumerus -27.0528 -12.812 -75.4307
rradius 33.1277
rwrist 10.0333
rhand -16.6381 16.2185
rfingers 7.12502
rthumb 9.58454 -13.5435
lclavicle 1.46107e-014 -1.35174e-014
lhumerus -21.7955 1.9677 76.8892
lradius 36.0341
lwrist -2.66732
lhand -16.9994 16.6217
lfingers 7.12502
lthumb 9.23593 46.3994
rfemur -24.9025 -3.65361 22.9117
rtibia 53.5214
rfoot -24.3952 -9.66724
rtoes -4.90677
lfemur -26.0958 2.89231 -18.5578
ltibia 53.2221
lfoot -25.8633 0.290191
ltoes -4.91491
189
root 0.928628 16.3465 -17.3048 2.14959 2.32935 -1.09699
lowerback 15.5654 -0.590554 -0.789104
upperback 2.08097 -0.740887 2.37687
thorax -6.46973 -0.313723 3.13058
lowerneck -22.1288 -4.67383 -9.24963
upperneck 11.0452 -4.70133 7.00214
head 7.36489 -1.9926 3.21614
rclavicle 1.30204e-014 -1.86858e-014
rhumerus -26.9723 -13.9797 -75.2946
rradius 32.4982
rwrist 9.6152
rhand -17.6835 15.5933
rfingers 7.12502
rthumb 8.57573 -14.2125
lclavicle 1.30204e-014 -1.86858e-014
lhumerus -21.7955 1.9677 76.8892
lradius 36.0341
lwrist -2.66732
lhand -16.9994 16.6217
lfingers 7.12502
lthumb 9.23593 46.3994
rfemur -25.7708 -3.69012 23.0239
rtibia 55.4293
rfoot -24.4227 -10.3201
rtoes -8.33314
lfemur -27.1899 2.95998 -18.3303
ltibia 55.5127
lfoot -26.2383 0.114081
ltoes -6.72496
190
root 0.930934 16.225 -17.3513 1.61244 2.34195 -1.15138
lowerback 16.2721 -0.6294 -0.768972
upperback 2.22473 -0.779545 2.47465
thorax -6.70063 -0.329718 3.24663
lowerneck -22.1208 -4.48935 -9.28829
upperneck 11.0333 -4.39106 6.71322
head 7.32617 -1.87409 3.16626
rclavicle -1.35174e-014 5.1684e-015
rhumerus -26.8332 -15.0394 -75.1769
rradius 31.5838
rwrist 9.23765
rhand -18.626 14.8662
rfingers 7.12502
rthumb 7.66619 -14.9749
lclavicle -1.35174e-014 5.1684e-015
lhumerus -21.7955 1.9677 76.8892
lradius 36.0341
lwrist -2.66732
lhand -16.9994 16.6217
lfingers 7.12502
lthumb 9.23593 46.3994
rfemur -26.3514 -3.80866 23.0783
rtibia 57.0793
rfoot -24.5892 -10.6631
rtoes -9.54625
lfemur -27.9419 3.08259 -18.1419
ltibia 57.5311
lfoot -26.7972 -0.513392
ltoes -6.9916
